<svg xmlns="http://www.w3.org/2000/svg" viewBox="0 0 271.77 143.36"><title>Asset 15Logo</title><g id="Layer_2" data-name="Layer 2"><g id="Слой_1" data-name="Слой 1"><rect id="Rectangle_100" data-name="Rectangle 100" x="63.87" y="1.74" width="8.04" height="45.55" style="fill:#fff;stroke:#fff;stroke-miterlimit:10;stroke-width:0.5909411587051805px"/><path id="Path_35" data-name="Path 35" d="M15.34,69.24l8.79.26L12.64,102.14l-9.81.06Z" style="fill:#fff;stroke:#fff;stroke-miterlimit:10;stroke-width:0.5909411587051805px"/><path id="Path_33" data-name="Path 33" d="M50.1,1.25,26.81,62.9c0,.1-10,.16-10,.07L40.72,1.25C40.76,1.15,50.13,1.17,50.1,1.25Z" style="fill:#941c5c;stroke:#941c5c;stroke-miterlimit:10;stroke-width:2.363764634820726px"/><path id="Path_34" data-name="Path 34" d="M80.07,54.13V63H17.17l3.27-8.84Z" style="fill:#941c5c;stroke:#941c5c;stroke-miterlimit:10;stroke-width:2.363764634820726px"/><rect id="Rectangle_99" data-name="Rectangle 99" x="63.19" y="55.47" width="8.84" height="46.89" style="fill:#941c5c;stroke:#941c5c;stroke-miterlimit:10;stroke-width:2.363764634820726px"/><g style="isolation:isolate"><path d="M143,101.32h-7.1v-7h-.17a14.57,14.57,0,0,1-13.68,8q-15.84,0-15.83-18.87V57h7V82.36q0,14,10.73,14a10.88,10.88,0,0,0,8.55-3.83,14.71,14.71,0,0,0,3.35-10V57H143Z" style="fill:#fff;stroke:#fff;stroke-miterlimit:10;stroke-width:2.363764634820726px"/></g><g style="isolation:isolate"><path d="M201.42,101a13.59,13.59,0,0,1-6.62,1.39q-11.64,0-11.64-13V63.15h-7.62V57.09h7.62V46.27L190.25,44V57.09h11.17v6.06H190.25v25q0,4.45,1.52,6.36t5,1.91a7.41,7.41,0,0,0,4.63-1.48Z" style="fill:#fff;stroke:#fff;stroke-miterlimit:10;stroke-width:2.363764634820726px"/></g><g style="isolation:isolate"><path d="M246.87,102.36q-9.83,0-15.69-6.21t-5.86-16.47q0-11.16,6.1-17.44T247.91,56q9.92,0,15.47,6.1T268.94,79q0,10.61-6,17T246.87,102.36Zm.52-40.42a13.5,13.5,0,0,0-10.82,4.65q-4,4.65-4,12.83,0,7.88,4,12.42a13.7,13.7,0,0,0,10.78,4.55q6.88,0,10.58-4.46t3.7-12.68q0-8.31-3.7-12.81T247.39,61.94Z" style="fill:#fff;stroke:#fff;stroke-miterlimit:10;stroke-width:2.363764634820726px"/></g><g id="m" style="isolation:isolate"><g style="isolation:isolate"><path d="M27,142.91H21.87v-9.54c0-2.43-.9-3.64-2.68-3.64a2.46,2.46,0,0,0-2.08,1.09,4.53,4.53,0,0,0-.8,2.73v9.36H11.15v-9.64q0-3.54-2.63-3.54a2.53,2.53,0,0,0-2.12,1,4.61,4.61,0,0,0-.79,2.85v9.29H.44V126.18H5.61v2.62h.06a6.33,6.33,0,0,1,5.41-3,4.82,4.82,0,0,1,4.85,3.12,6.2,6.2,0,0,1,5.63-3.12q5.45,0,5.45,6.73Z" style="fill:#fff;stroke:#fff;stroke-miterlimit:10;stroke-width:0.8852269122382471px"/></g></g><g style="isolation:isolate"><path d="M71.67,142.5H66.78v-2.4h-.06a5.46,5.46,0,0,1-5,2.81,5.21,5.21,0,0,1-3.83-1.38,5,5,0,0,1-1.4-3.68c0-3.25,1.93-5.12,5.77-5.62l4.54-.61c0-1.83-1-2.74-3-2.74a10.16,10.16,0,0,0-5.69,1.78v-3.89a12.8,12.8,0,0,1,3-1,15.81,15.81,0,0,1,3.41-.43q7.15,0,7.16,7.14Zm-4.86-6.79v-1.13l-3,.39c-1.68.22-2.52,1-2.52,2.27a1.88,1.88,0,0,0,.61,1.45,2.34,2.34,0,0,0,1.66.56,3.05,3.05,0,0,0,2.37-1A3.63,3.63,0,0,0,66.81,135.71Z" style="fill:#fff;stroke:#fff;stroke-miterlimit:10;stroke-width:0.8852269122382471px"/></g><g style="isolation:isolate"><path d="M119.9,130.84a4.43,4.43,0,0,0-2.17-.51,3.12,3.12,0,0,0-2.63,1.24,5.31,5.31,0,0,0-.95,3.35v8H109V126.18h5.16v3.11h.06q1.23-3.41,4.42-3.4a3.33,3.33,0,0,1,1.27.19Z" style="fill:#fff;stroke:#fff;stroke-miterlimit:10;stroke-width:0.8852269122382471px"/></g><g style="isolation:isolate"><path d="M173.18,142.91H167l-5.34-8.3h-.07v8.3h-5.16V118.14h5.16v15.77h.07l5-7.73h6.13l-6,7.86Z" style="fill:#fff;stroke:#fff;stroke-miterlimit:10;stroke-width:0.8852269122382471px"/></g><g style="isolation:isolate"><path d="M223.17,135.61H212.26q.26,3.64,4.59,3.64a9,9,0,0,0,4.85-1.3v3.72a12.69,12.69,0,0,1-6,1.24,7.78,7.78,0,0,1-8.53-8.51,9,9,0,0,1,2.42-6.6,8.08,8.08,0,0,1,5.95-2.44,7.3,7.3,0,0,1,5.66,2.18,8.34,8.34,0,0,1,2,5.9Zm-4.78-3.17q0-3.6-2.91-3.6a2.79,2.79,0,0,0-2.15,1,4.66,4.66,0,0,0-1.1,2.57Z" style="fill:#fff;stroke:#fff;stroke-miterlimit:10;stroke-width:0.8852269122382471px"/></g><g style="isolation:isolate"><path d="M271.33,142.31a7.73,7.73,0,0,1-3.45.6q-5.46,0-5.46-5.67v-7.66h-2.71v-3.81h2.71v-3.61l5.15-1.47v5.08h3.76v3.81h-3.76v6.76c0,1.75.69,2.62,2.07,2.62a3.58,3.58,0,0,0,1.69-.47Z" style="fill:#fff;stroke:#fff;stroke-miterlimit:10;stroke-width:0.8852269122382471px"/></g></g></g></svg>